<svg width="28" height="25" viewBox="0 0 28 25" fill="none" xmlns="http://www.w3.org/2000/svg">
<g clip-path="url(#clip0_139_2)">
<path d="M6.74428 -0.0108102C4.50101 0.177133 2.50063 1.4031 1.1861 3.40108C0.0344562 5.1475 -0.30275 7.46642 0.288789 9.55982C0.477396 10.2248 0.823175 10.9766 1.22039 11.5809C1.4833 11.9799 1.80622 12.3327 3.4551 14.0271C5.12684 15.7417 14.24 24.9711 14.2628 24.9711C14.2714 24.9711 14.8029 24.4247 15.4431 23.7567C16.0832 23.0888 16.6176 22.5423 16.6318 22.5423C16.6461 22.5423 16.7976 22.6349 16.9662 22.7476C17.4177 23.0483 18.1064 23.3808 18.6608 23.5659C19.4295 23.8232 19.901 23.9013 20.6726 23.9013C21.427 23.9013 22.0243 23.8261 22.5987 23.6555C23.6703 23.3433 24.5762 22.7968 25.4106 21.9583C26.428 20.9347 27.0109 19.8504 27.291 18.4683C27.4082 17.8785 27.4167 16.5513 27.3053 15.9614C27.1367 15.0564 26.7366 14.0965 26.1651 13.2175L25.865 12.7548L25.9279 12.645C25.9622 12.5843 26.1365 12.3472 26.3137 12.1245C26.8881 11.3959 27.2567 10.78 27.531 10.0861C27.9111 9.12899 28.0311 8.35987 27.9968 7.1021C27.9768 6.3937 27.934 6.08143 27.7939 5.56965C27.2224 3.46758 25.7764 1.72116 23.7818 0.714938C23.0016 0.321704 22.2672 0.107738 21.3927 0.0181041C20.9584 -0.0281587 19.8639 -0.00502731 19.4752 0.0585841C18.7951 0.168458 18.1721 0.376641 17.4691 0.723613C16.6004 1.15733 16.1718 1.5043 14.7801 2.89218L13.9999 3.67287L13.8656 3.54276C13.7913 3.47047 13.4255 3.10904 13.0512 2.74183C11.6195 1.3337 10.8822 0.813247 9.70198 0.385316C8.86182 0.0788241 7.62445 -0.0859873 6.74428 -0.0108102ZM8.30172 0.842161C9.49623 1.0301 10.6336 1.55634 11.5823 2.36016C11.8138 2.55678 13.5684 4.36681 13.8856 4.73692L13.9799 4.84679L15.083 3.75094C16.7719 2.07969 17.0148 1.87729 17.8035 1.49562C18.3979 1.20937 19.0666 1.01276 19.8039 0.911555C20.1554 0.862401 21.167 0.862401 21.5185 0.911555C22.4958 1.04745 23.396 1.36262 24.1047 1.82236C24.8277 2.29077 25.6964 3.14952 26.1851 3.88684C26.3994 4.20778 26.7452 4.91908 26.8766 5.30653C27.0024 5.67663 27.1024 6.07275 27.1624 6.43707C27.2253 6.81007 27.251 7.73243 27.2081 8.14591C27.0595 9.59451 26.4537 10.9477 25.4564 12.0609L25.3278 12.2026L25.1449 12.0436C24.6105 11.5723 23.6875 11.0142 23.0502 10.7771C22.8416 10.699 22.1586 10.5169 21.9586 10.4851C21.8785 10.4735 21.5699 10.4533 21.2727 10.4417C19.8753 10.3925 18.8265 10.6094 17.7206 11.179C15.8603 12.139 14.52 13.9606 14.18 15.9932C14.0942 16.4935 14.0485 17.1758 14.0685 17.6124C14.0885 18.0115 14.1542 18.4307 14.2171 18.5522C14.2371 18.5926 14.2714 18.6881 14.2971 18.769C14.4114 19.1478 14.6515 19.7608 14.8315 20.128C15.0687 20.6166 15.3173 20.9983 15.7174 21.487C15.8831 21.6894 16.0289 21.8773 16.0432 21.9062C16.0603 21.9467 16.0489 21.9843 15.9889 22.0566C15.8917 22.1751 15.0373 23.1033 14.5972 23.5688L14.2685 23.9158L12.7597 22.3978C10.425 20.0441 4.1095 13.5673 2.5435 11.9163C2.19772 11.5491 2.02054 11.3352 1.84908 11.0778C1.31755 10.2653 0.960344 9.28513 0.826033 8.25867C0.774595 7.85677 0.78031 6.98645 0.840321 6.56719C1.0918 4.79474 1.8948 3.33457 3.22077 2.23872C3.68085 1.85994 4.3667 1.45804 4.96681 1.22094C5.4669 1.02432 6.14703 0.856618 6.70142 0.79879C7.05291 0.764093 7.95308 0.787224 8.30172 0.842161ZM21.1384 11.179C22.1272 11.2687 23.1645 11.6388 24.0189 12.2113C25.1849 12.9919 25.9222 13.9374 26.3194 15.1663C26.6452 16.1725 26.6937 17.5257 26.4365 18.5406C26.0165 20.2003 24.8791 21.6373 23.3817 22.3949C22.5244 22.8286 21.7614 23.0079 20.7755 23.0079C19.5095 23.0079 18.5322 22.7071 17.492 21.993C16.569 21.3597 15.9774 20.7005 15.5288 19.7984C15.243 19.2201 15.0658 18.6563 14.9572 17.9883C14.8772 17.5026 14.8858 16.6323 14.9715 16.1378C15.2459 14.5678 16.0117 13.2984 17.2605 12.3356C18.3465 11.5029 19.821 11.0605 21.1384 11.179Z" fill="#613A6B" stroke="#613A6B" stroke-width="0.3"/>
<path d="M20.2895 15.3427V16.7595H18.9464H17.6004L17.609 17.1412L17.6176 17.5257L18.9521 17.5344L20.2895 17.5402L20.2952 18.8645L20.3038 20.1858L20.7124 20.1945L21.1182 20.2032V18.8702V17.5402H22.4613H23.8045V17.1498V16.7595H22.4613H21.1182V15.3427V13.9259H20.7039H20.2895V15.3427Z" fill="#613A6B" stroke="#613A6B"/>
</g>
<defs>
<clipPath id="clip0_139_2">
<rect width="28" height="25" fill="white"/>
</clipPath>
</defs>
</svg>
