<svg width="52" height="52" viewBox="0 0 52 52" fill="none" xmlns="http://www.w3.org/2000/svg">
<rect x="52" y="52" width="52" height="52" rx="26" transform="rotate(-180 52 52)" fill="white" fill-opacity="0.95"/>
<path d="M29.449 16.9796C29.7143 16.9796 29.9796 17.0857 30.1918 17.298C30.6163 17.7225 30.6163 18.3857 30.1918 18.8102L22.2326 26.7694C21.8082 27.1939 21.1449 27.1939 20.7204 26.7694C20.2959 26.3449 20.2959 25.6816 20.7204 25.2572L28.6796 17.298C28.9184 17.0857 29.1837 16.9796 29.449 16.9796Z" fill="#613A6B"/>
<path d="M21.4898 24.9388C21.7551 24.9388 22.0204 25.0449 22.2326 25.2571L30.1918 33.2163C30.6163 33.6408 30.6163 34.3041 30.1918 34.7286C29.7673 35.1531 29.1041 35.1531 28.6796 34.7286L20.7204 26.7694C20.2959 26.3449 20.2959 25.6816 20.7204 25.2571C20.9592 25.0449 21.2245 24.9388 21.4898 24.9388Z" fill="#613A6B"/>
<path d="M26 4.77551C37.7 4.77551 47.2245 14.3 47.2245 26C47.2245 37.7 37.7 47.2245 26 47.2245C14.3 47.2245 4.77551 37.7 4.77551 26C4.77551 14.3 14.3 4.77551 26 4.77551ZM26 45.102C36.5327 45.102 45.102 36.5327 45.102 26C45.102 15.4673 36.5327 6.89796 26 6.89796C15.4673 6.89796 6.89796 15.4673 6.89796 26C6.89796 36.5327 15.4673 45.102 26 45.102Z" fill="#613A6B"/>
</svg>
