<svg width="52" height="52" viewBox="0 0 52 52" fill="none" xmlns="http://www.w3.org/2000/svg">
<rect width="52" height="52" rx="26" fill="white" fill-opacity="0.95"/>
<path d="M22.551 35.0204C22.2857 35.0204 22.0204 34.9143 21.8082 34.702C21.3837 34.2775 21.3837 33.6143 21.8082 33.1898L29.7674 25.2306C30.1918 24.8061 30.8551 24.8061 31.2796 25.2306C31.7041 25.6551 31.7041 26.3184 31.2796 26.7428L23.3204 34.702C23.0816 34.9143 22.8163 35.0204 22.551 35.0204Z" fill="#613A6B"/>
<path d="M30.5102 27.0612C30.2449 27.0612 29.9796 26.9551 29.7674 26.7429L21.8082 18.7837C21.3837 18.3592 21.3837 17.6959 21.8082 17.2714C22.2327 16.8469 22.8959 16.8469 23.3204 17.2714L31.2796 25.2306C31.7041 25.6551 31.7041 26.3184 31.2796 26.7429C31.0408 26.9551 30.7755 27.0612 30.5102 27.0612Z" fill="#613A6B"/>
<path d="M26 47.2245C14.3 47.2245 4.77551 37.7 4.77551 26C4.77551 14.3 14.3 4.77551 26 4.77551C37.7 4.77551 47.2245 14.3 47.2245 26C47.2245 37.7 37.7 47.2245 26 47.2245ZM26 6.89796C15.4673 6.89796 6.89796 15.4673 6.89796 26C6.89796 36.5327 15.4673 45.102 26 45.102C36.5327 45.102 45.102 36.5327 45.102 26C45.102 15.4673 36.5327 6.89796 26 6.89796Z" fill="#613A6B"/>
</svg>
