<svg width="28" height="28" viewBox="0 0 28 28" fill="none" xmlns="http://www.w3.org/2000/svg">
<g clip-path="url(#clip0_132_2)">
<path d="M3.9375 0.65625C3.9375 1.18125 5.6 1.3125 15.225 1.4L26.4687 1.53125L26.6 12.775C26.6875 22.4 26.8187 24.0625 27.3437 24.0625C27.9125 24.0625 28 22.4875 28 12.9063C28 2.31875 27.9562 1.70625 27.125 0.875C26.2937 0.0437504 25.6812 4.09782e-07 15.0937 4.09782e-07C5.5125 4.09782e-07 3.9375 0.0875004 3.9375 0.65625Z" fill="#FAF4F8"/>
<path d="M0.74375 3.4125C0.0875 4.1125 0 5.6 0 15.225C0 25.6813 0.04375 26.2938 0.875 27.125C1.70625 27.9563 2.31875 28 12.8187 28C23.0125 28 23.975 27.9563 24.6312 27.2125C25.2875 26.5125 25.375 25.025 25.375 15.225C25.375 4.9875 25.3312 4.025 24.5875 3.36875C23.8875 2.7125 22.4 2.625 12.6 2.625C2.3625 2.625 1.4 2.66875 0.74375 3.4125ZM23.8437 15.3125V26.4688H12.6875H1.53125L1.4 15.75C1.35625 9.8875 1.4 4.8125 1.53125 4.50625C1.6625 4.025 4.1125 3.9375 12.775 4.025L23.8437 4.15625V15.3125Z" fill="#FAF4F8"/>
<path d="M12.9062 9.58125L8.96875 10.2813L8.8375 14.7438C8.70625 18.9438 8.6625 19.2063 7.74375 19.3375C7.13125 19.425 6.78125 19.775 6.78125 20.3438C6.78125 21.0438 7.0875 21.2188 8.3125 21.2188H9.84375L9.975 17.6313C10.1062 13.6063 9.975 13.7813 13.9562 13.3L16.625 12.9938V15.4C16.625 17.7625 16.5812 17.85 15.2687 18.1125C14.3062 18.2875 13.9562 18.5938 14.0875 19.1188C14.2625 20.0813 17.0187 20.475 17.5437 19.6C18.1562 18.6375 18.025 9.31875 17.4125 9.1C17.1062 8.96875 15.0937 9.23125 12.9062 9.58125ZM16.5375 11.025C16.4062 11.3313 15.4875 11.725 14.3937 11.9C13.3437 12.075 11.9437 12.2938 11.2875 12.425C10.4125 12.6 10.0625 12.4688 10.0625 12.0313C10.0625 11.6375 10.7187 11.2875 11.725 11.1563C12.6 10.9813 13.5625 10.8063 13.7812 10.7188C14.9187 10.325 16.6687 10.5438 16.5375 11.025Z" fill="#FAF4F8"/>
</g>
<defs>
<clipPath id="clip0_132_2">
<rect width="28" height="28" fill="white"/>
</clipPath>
</defs>
</svg>
