<svg width="28" height="25" viewBox="0 0 28 25" fill="none" xmlns="http://www.w3.org/2000/svg">
<g clip-path="url(#clip0_142_10)">
<path d="M7.36391 0.0310861C5.50866 0.178145 3.78185 0.950204 2.46034 2.21717C1.16167 3.46152 0.365337 5.01412 0.0941852 6.82973C0.017121 7.34726 0.0256837 8.47566 0.108456 9.00733C0.322524 10.3705 0.810597 11.5271 1.63832 12.6272C1.86095 12.9242 2.64301 13.7104 7.95188 18.9762L14.0143 24.9858L20.0767 18.9762C25.3855 13.7104 26.1676 12.9242 26.3902 12.6272C27.2208 11.5215 27.7431 10.2658 27.9343 8.90835C28.0029 8.41344 28.0029 7.32747 27.9315 6.85801C27.7403 5.56842 27.3464 4.53335 26.6585 3.51242C26.2104 2.84783 25.6652 2.25394 25.0459 1.75337C24.4493 1.26977 23.5103 0.743756 22.7853 0.483575C21.1242 -0.113145 19.3032 -0.147081 17.6306 0.387421C16.4004 0.777693 15.4557 1.35179 14.4338 2.31898L14.0143 2.72057L13.6261 2.35009C12.5472 1.31785 11.5083 0.704163 10.1753 0.31672C9.34475 0.0735069 8.2316 -0.0396153 7.36391 0.0310861ZM8.53414 1.78448C9.25626 1.84953 9.97268 2.04466 10.6177 2.35009C11.4569 2.74885 11.7309 2.96378 12.9782 4.19398L14.0143 5.21491L15.0618 4.18267C16.3176 2.94964 16.5688 2.75167 17.3851 2.3614C17.9645 2.08708 18.524 1.9174 19.1576 1.81842C19.6028 1.75054 20.5019 1.75054 20.9472 1.82124C24.4864 2.3614 26.8069 5.6476 26.1019 9.12045C25.9164 10.0396 25.4711 10.9728 24.8575 11.7307C24.7604 11.8495 22.2744 14.3354 19.3317 17.2511L13.9829 22.5537L11.5796 20.1612C6.41345 15.0198 3.34515 11.94 3.1739 11.7307C2.73149 11.1878 2.32905 10.4666 2.11498 9.82181C1.7268 8.66796 1.69826 7.37554 2.02935 6.21039C2.35759 5.0622 3.01977 4.02996 3.92456 3.2579C5.21753 2.15778 6.85586 1.63176 8.53414 1.78448Z" fill="#613A6B"/>
<path d="M19.6486 1C17.8336 1 16.1094 1.736 14.839 3.024L13.75 4.128L12.7518 3.116C10.1201 0.356 5.76424 0.356 3.13256 3.024L3.04182 3.116C0.319395 5.876 0.319395 10.292 3.04182 13.052L13.75 24L24.4582 13.052C27.1806 10.292 27.1806 5.876 24.4582 3.116C23.1877 1.736 21.4635 1 19.6486 1Z" fill="#613A6B"/>
</g>
<defs>
<clipPath id="clip0_142_10">
<rect width="28" height="25" fill="white"/>
</clipPath>
</defs>
</svg>
