<svg width="46" height="46" viewBox="0 0 46 46" fill="none" xmlns="http://www.w3.org/2000/svg">
<g clip-path="url(#clip0_14_2)">
<path d="M21.4045 0.0516167C16.5463 0.403656 12.0261 2.22488 8.26161 5.34631C7.55753 5.92366 5.90998 7.5759 5.34202 8.26121C1.20671 13.2743 -0.619205 19.5406 0.188142 25.9337C0.746714 30.3177 2.53978 34.3873 5.46406 37.8796C5.92406 38.4288 7.2008 39.7243 7.79222 40.2453C14.0257 45.7184 22.6155 47.4316 30.4402 44.7608C34.6412 43.3292 38.4198 40.6349 41.1469 37.1239C44.5969 32.6835 46.3102 27.1447 45.9534 21.5684C45.6249 16.4286 43.6535 11.6784 40.2504 7.79182C39.5651 7.01264 38.2461 5.75468 37.4388 5.10223C33.8902 2.26243 29.8816 0.605495 25.3473 0.117332C24.5306 0.0281487 22.2306 -0.00940323 21.4045 0.0516167ZM24.8779 2.95713C30.8063 3.55325 36.0118 6.57141 39.4337 11.392C43.7379 17.4565 44.3153 25.4971 40.931 32.1296C38.9126 36.0771 35.6504 39.2596 31.6606 41.17C26.6053 43.5826 20.6816 43.7704 15.4902 41.6722C11.6506 40.1186 8.40712 37.4524 6.13998 33.9837C2.57263 28.5388 1.88733 21.6669 4.29529 15.5602C4.80692 14.2553 5.65651 12.6875 6.5108 11.4624C8.59957 8.46774 11.5708 6.03162 14.9035 4.57652C17.18 3.57672 19.4237 3.05101 22.0381 2.89141C22.5122 2.86325 24.3569 2.90549 24.8779 2.95713Z" fill="#613A6B"/>
<path d="M16.1141 11.5939C15.7949 11.7863 15.8184 10.7725 15.8184 23.3286C15.8184 36.0067 15.7855 34.9037 16.1516 35.1102C16.2924 35.1853 16.391 35.2088 16.5177 35.19C16.6351 35.1759 17.4659 34.7253 18.9679 33.8663C20.2165 33.1482 23.6712 31.1674 26.6377 29.4635C29.609 27.7596 32.9745 25.8304 34.1245 25.1686C35.2745 24.5114 36.2837 23.92 36.3728 23.8543C36.6733 23.6337 36.7343 23.2159 36.5043 22.9437C36.448 22.8733 34.0588 21.4745 31.1439 19.8035C28.2524 18.1465 24.6616 16.0906 23.1643 15.2316C16.391 11.3451 16.6679 11.5 16.4567 11.5C16.3488 11.5 16.1986 11.5422 16.1141 11.5939ZM25.4408 20.0663C28.8345 21.8406 31.6273 23.3098 31.6461 23.3239C31.6696 23.3474 23.7604 27.539 19.5641 29.7263L18.6816 30.1863V23.352V16.5178L18.9773 16.6774C19.1369 16.7665 22.0471 18.292 25.4408 20.0663Z" fill="#613A6B"/>
</g>
<defs>
<clipPath id="clip0_14_2">
<rect width="46" height="46" fill="white"/>
</clipPath>
</defs>
</svg>
