<svg width="22" height="22" viewBox="0 0 22 22" fill="none" xmlns="http://www.w3.org/2000/svg">
<path d="M4.23887 4.23887C0.504889 7.97285 0.504889 14.025 4.23887 17.759C7.97286 21.493 14.025 21.493 17.759 17.759C21.493 14.025 21.493 7.97285 17.759 4.23887C14.025 0.504884 7.97286 0.507033 4.23887 4.23887ZM19.4863 11C19.4863 12.1021 19.2779 13.1764 18.8654 14.1947C18.4379 15.2475 17.8106 16.1906 17.0006 17.0006C16.1906 17.8105 15.2453 18.4379 14.1947 18.8654C13.1764 19.2779 12.1022 19.4863 11 19.4863C9.89786 19.4863 8.82364 19.2779 7.80528 18.8654C6.75254 18.4379 5.80938 17.8105 4.99942 17.0006C4.18946 16.1906 3.56212 15.2453 3.13458 14.1947C2.72208 13.1764 2.51368 12.1021 2.51368 11C2.51368 9.89785 2.72208 8.82363 3.13458 7.80527C3.56212 6.75254 4.18946 5.80938 4.99942 4.99942C5.80938 4.18945 6.75469 3.56211 7.80528 3.13457C8.82364 2.72207 9.89786 2.51367 11 2.51367C12.1022 2.51367 13.1764 2.72207 14.1947 3.13457C15.2475 3.56211 16.1906 4.18945 17.0006 4.99942C17.8106 5.80938 18.4379 6.75469 18.8654 7.80527C19.2779 8.82363 19.4863 9.89785 19.4863 11ZM11.5371 5.62891V10.4629H16.3711V11.5371H11.5371V16.3711H10.4629V11.5371H5.62891V10.4629H10.4629V5.62891H11.5371Z" fill="white"/>
</svg>
