<svg width="52" height="52" viewBox="0 0 60 60" fill="none" xmlns="http://www.w3.org/2000/svg">
<path d="M33.9796 19.5919C34.2857 19.5919 34.5918 19.7143 34.8367 19.9592C35.3265 20.449 35.3265 21.2143 34.8367 21.7041L25.6531 30.8878C25.1633 31.3776 24.3979 31.3776 23.9082 30.8878C23.4184 30.398 23.4184 29.6327 23.9082 29.1429L33.0918 19.9592C33.3673 19.7143 33.6735 19.5919 33.9796 19.5919Z" fill="white"/>
<path d="M24.7959 28.7755C25.102 28.7755 25.4082 28.898 25.6531 29.1429L34.8367 38.3265C35.3265 38.8163 35.3265 39.5816 34.8367 40.0714C34.3469 40.5612 33.5816 40.5612 33.0918 40.0714L23.9082 30.8878C23.4184 30.398 23.4184 29.6327 23.9082 29.1429C24.1837 28.898 24.4898 28.7755 24.7959 28.7755Z" fill="white"/>
<path d="M30 5.51022C43.5 5.51022 54.4898 16.5 54.4898 30C54.4898 43.5 43.5 54.4898 30 54.4898C16.5 54.4898 5.5102 43.5 5.5102 30C5.5102 16.5 16.5 5.51022 30 5.51022ZM30 52.0408C42.1531 52.0408 52.0408 42.1531 52.0408 30C52.0408 17.847 42.1531 7.95919 30 7.95919C17.8469 7.95919 7.95918 17.847 7.95918 30C7.95918 42.1531 17.8469 52.0408 30 52.0408Z" fill="white"/>
</svg>
