<svg width="28" height="28" viewBox="0 0 28 28" fill="none" xmlns="http://www.w3.org/2000/svg">
<g clip-path="url(#clip0_18_48)">
<path d="M9.75625 0.787493C4.9875 2.49374 1.96875 5.68749 0.56875 10.4562C-0.7 14.9187 0.74375 20.4312 4.15625 23.8437C9.49375 29.1375 18.5063 29.1375 23.8438 23.8437C27.825 19.8187 29.0063 13.3 26.6437 8.26874C23.625 1.88124 16.1 -1.48751 9.75625 0.787493ZM18.7687 2.44999C22.575 4.02499 25.4187 7.52499 26.25 11.6375C27.6062 18.1562 23.0562 24.85 16.4062 26.25C7.91875 28 -3.35276e-07 20.0812 1.75 11.5937C3.325 3.93749 11.6375 -0.525007 18.7687 2.44999Z" fill="#613A6B"/>
<path d="M8.75 9.27499C8.75 9.58124 9.66875 10.7625 10.8062 11.9L12.8625 14L10.7188 16.1875C9.14375 17.8062 8.70625 18.5062 9.05625 18.8562C9.40625 19.2062 10.15 18.8125 11.7687 17.2812L14 15.1812L16.2312 17.2812C17.85 18.8125 18.5938 19.2062 18.9437 18.8562C19.2937 18.5062 18.8562 17.8062 17.2812 16.1875L15.1375 14L17.1937 11.9C18.3313 10.7625 19.25 9.58124 19.25 9.27499C19.25 8.26874 18.1562 8.79374 16.1 10.8062L14 12.8625L11.9 10.8062C9.84375 8.79374 8.75 8.26874 8.75 9.27499Z" fill="#613A6B"/>
</g>
<defs>
<clipPath id="clip0_18_48">
<rect width="28" height="28" fill="white"/>
</clipPath>
</defs>
</svg>
