<svg width="125" height="125" viewBox="0 0 125 125" fill="none" xmlns="http://www.w3.org/2000/svg">
<rect width="125" height="125" rx="25" fill="#613A6B"/>
<path d="M62.069 15.9024C50.6376 15.9024 39.673 20.4438 31.5903 28.527C23.507 36.6108 18.9655 47.574 18.9655 59.0053C18.9655 70.4366 23.507 81.401 31.5903 89.4837C39.6742 97.5668 50.6376 102.108 62.069 102.108C73.5004 102.108 84.4649 97.5668 92.5477 89.4837C100.631 81.3998 105.172 70.4366 105.172 59.0053C105.159 47.5779 100.614 36.6214 92.5332 28.5404C84.4526 20.4594 73.496 15.9145 62.0679 15.9014L62.069 15.9024ZM89.4979 74.6793C89.4966 76.2379 88.8767 77.7316 87.7746 78.8336C86.6724 79.9356 85.1788 80.5556 83.6202 80.557H40.5177C38.9591 80.5556 37.4653 79.9357 36.3633 78.8336C35.2613 77.7315 34.6413 76.2379 34.64 74.6793V51.1685C34.6413 49.6105 35.2612 48.1161 36.3633 47.0148C37.4654 45.9128 38.9591 45.2928 40.5177 45.2908H48.5787C49.4026 45.2895 50.138 44.7732 50.4201 43.9985L51.3864 41.3305C51.7996 40.1963 52.5514 39.2163 53.54 38.5229C54.5286 37.8295 55.706 37.4562 56.9138 37.4542H67.2247C68.4324 37.4562 69.6099 37.8295 70.5986 38.5229C71.5872 39.2162 72.3389 40.197 72.7522 41.3312L73.7185 43.9972V43.9978C73.9999 44.7726 74.7353 45.2895 75.5599 45.2908H83.6208C85.1795 45.2928 86.6732 45.9127 87.7752 47.0148C88.8773 48.1162 89.4972 49.6105 89.4986 51.1685L89.4979 74.6793ZM69.9065 62.9239C69.9065 65.0027 69.0806 66.9956 67.6112 68.4657C66.1411 69.9351 64.1475 70.761 62.0693 70.761C59.9911 70.761 57.9975 69.9351 56.5274 68.4657C55.058 66.9956 54.2321 65.0027 54.2321 62.9239C54.2321 60.8457 55.058 58.8522 56.5274 57.3827C57.9975 55.9127 59.9911 55.0874 62.0693 55.0874C64.1468 55.0894 66.1391 55.9159 67.6085 57.3854C69.0773 58.8542 69.9038 60.8464 69.9065 62.9239ZM83.6215 49.2091L75.5599 49.2097C74.3529 49.2071 73.1754 48.8338 72.1868 48.1404C71.1982 47.4471 70.4471 46.4663 70.0338 45.3321L69.0675 42.6661C68.7861 41.8907 68.0494 41.3738 67.2248 41.3725H56.9138C56.0892 41.3738 55.3532 41.8901 55.0711 42.6648L54.1048 45.3328C53.6915 46.4677 52.9397 47.4471 51.9512 48.1405C50.9633 48.8339 49.7857 49.2071 48.5787 49.2097H40.5178C39.436 49.2111 38.5596 50.0875 38.5583 51.1685V74.6793C38.5596 75.761 39.436 76.6374 40.5178 76.6387H83.6202C84.702 76.6374 85.5783 75.761 85.5797 74.6793V51.1685C85.5784 50.0875 84.702 49.2111 83.6202 49.2097L83.6215 49.2091ZM46.3952 55.0874H42.4762C41.3945 55.0874 40.5174 54.2097 40.5174 53.128C40.5174 52.0462 41.3945 51.1685 42.4762 51.1685H46.3952C47.4769 51.1685 48.354 52.0462 48.354 53.128C48.354 54.2097 47.4769 55.0874 46.3952 55.0874ZM62.069 74.6803V74.6796C58.9511 74.6796 55.961 73.4411 53.7568 71.237C51.552 69.0322 50.3134 66.0421 50.3134 62.9242C50.3134 59.8071 51.552 56.817 53.7568 54.6122C55.961 52.4074 58.9511 51.1689 62.069 51.1689C65.1869 51.1689 68.177 52.4074 70.3811 54.6122C72.5859 56.817 73.8245 59.8071 73.8245 62.9242C73.8212 66.0409 72.5814 69.029 70.3779 71.2331C68.1738 73.4366 65.1857 74.6764 62.069 74.6796V74.6803ZM81.662 55.0874C80.8696 55.0874 80.1552 54.6098 79.8515 53.8778C79.5485 53.1457 79.7164 52.3027 80.2766 51.7425C80.8368 51.1823 81.6798 51.0143 82.4119 51.3181C83.144 51.6211 83.6209 52.3355 83.6209 53.1279C83.6209 53.6474 83.4149 54.146 83.0476 54.5134C82.6796 54.8807 82.1817 55.0873 81.6621 55.0873L81.662 55.0874Z" fill="#F0EAF5"/>
</svg>
