<svg width="48" height="48" viewBox="0 0 48 48" fill="none" xmlns="http://www.w3.org/2000/svg">
<path d="M19.275 2.25C2.17499 6.525 -3.90001 27.45 8.47499 39.6C17.325 48.3 31.05 48.225 39.6 39.525C52.725 26.1 44.625 3.9 25.875 1.95C23.85 1.725 20.85 1.875 19.275 2.25ZM31.425 5.775C41.475 9.375 46.425 21.75 42 32.025C35.4 47.4 12.6 47.475 5.99999 32.1C2.99999 25.125 4.34999 15.825 9.22499 10.65C13.125 6.45 20.7 3.6 25.875 4.275C27.15 4.5 29.625 5.175 31.425 5.775Z" fill="#613A6B"/>
<path d="M17.625 14.4C17.4 15 17.325 19.65 17.4 24.825L17.625 34.125H19.5H21.375V24C21.375 14.1 21.375 13.875 19.65 13.65C18.75 13.5 17.85 13.875 17.625 14.4Z" fill="#613A6B"/>
<path d="M26.625 14.4C26.4 15 26.325 19.65 26.4 24.825L26.625 34.125H28.5H30.375V24C30.375 14.1 30.375 13.875 28.65 13.65C27.75 13.5 26.85 13.875 26.625 14.4Z" fill="#613A6B"/>
</svg>
